<svg width="560" height="845" viewBox="0 0 560 845" fill="none" xmlns="http://www.w3.org/2000/svg">
<path d="M288 784.5C288 800.546 281.626 815.934 270.28 827.28C258.934 838.626 243.546 845 227.5 845C211.454 845 196.066 838.626 184.72 827.28C173.374 815.934 167 800.546 167 784.5L227.5 784.5H288Z" fill="#0089FD"/>
<rect x="378" y="298" width="181" height="181" fill="#00213D"/>
<rect x="378" y="479" width="181" height="181" fill="#26AC6E"/>
<rect x="197" y="117" width="181" height="181" fill="#00213D"/>
<path d="M377.5 298C353.796 298 330.325 293.344 308.426 284.298C286.526 275.252 266.628 261.994 249.867 245.279C233.106 228.565 219.811 208.722 210.74 186.883C201.669 165.044 197 141.638 197 118L377.5 118L377.5 298Z" fill="#0088FE"/>
<path d="M559.5 839C535.796 839 512.325 834.344 490.426 825.298C468.526 816.252 448.628 802.994 431.867 786.279C415.106 769.565 401.811 749.722 392.74 727.883C383.669 706.044 379 682.638 379 659L559.5 659L559.5 839Z" fill="#FA3465"/>
<path d="M378 298C401.901 298 425.567 302.695 447.648 311.816C469.73 320.937 489.793 334.306 506.693 351.16C523.594 368.014 537 388.022 546.146 410.043C555.292 432.064 560 455.665 560 479.5L378 479.5V298Z" fill="#FFC300"/>
<path d="M560 478.5C560 502.335 555.292 525.936 546.146 547.957C537 569.978 523.594 589.986 506.693 606.84C489.793 623.694 469.73 637.063 447.648 646.184C425.567 655.305 401.901 660 378 660L378 478.5H560Z" fill="#FFC300"/>
<path d="M103 472.5C103 436.033 117.487 401.059 143.273 375.273C169.059 349.487 204.033 335 240.5 335C276.967 335 311.941 349.487 337.727 375.273C363.513 401.059 378 436.033 378 472.5L240.5 472.5L103 472.5Z" fill="#7538FE"/>
<mask id="path-10-inside-1_1214_2" fill="white">
<path d="M0 473C2.93302e-06 436.4 13.3276 401.299 37.051 375.419C60.7743 349.539 92.9501 335 126.5 335C160.05 335 192.226 349.539 215.949 375.419C239.672 401.299 253 436.4 253 473L126.5 473L0 473Z"/>
</mask>
<path d="M0 473C2.93302e-06 436.4 13.3276 401.299 37.051 375.419C60.7743 349.539 92.9501 335 126.5 335C160.05 335 192.226 349.539 215.949 375.419C239.672 401.299 253 436.4 253 473L126.5 473L0 473Z" stroke="black" stroke-width="2" mask="url(#path-10-inside-1_1214_2)"/>
</svg>
