<svg width="341" height="496" viewBox="0 0 341 496" fill="none" xmlns="http://www.w3.org/2000/svg">
<rect x="339.812" width="181" height="181" transform="rotate(89.7232 339.812 0)" fill="#E5F8F6"/>
<rect x="341.404" y="495.612" width="181" height="181" transform="rotate(-180 341.404 495.612)" fill="#E5F8F6"/>
<path d="M245 181.5C245 197.587 241.831 213.516 235.675 228.379C229.519 243.241 220.496 256.745 209.121 268.121C197.745 279.496 184.241 288.519 169.379 294.675C154.516 300.831 138.587 304 122.5 304C106.413 304 90.4837 300.831 75.6213 294.675C60.7589 288.519 47.2546 279.496 35.8794 268.121C24.5042 256.745 15.481 243.241 9.32475 228.379C3.16855 213.516 -1.40636e-06 197.587 0 181.5L122.5 181.5H245Z" fill="#FFC300"/>
<path d="M159.433 128.873C173.49 128.805 186.997 134.324 196.984 144.215C206.972 154.107 212.621 167.56 212.689 181.617L210.706 181.626C210.641 168.096 205.203 155.145 195.589 145.624C185.976 136.103 172.973 130.79 159.443 130.856L159.433 128.873Z" fill="#8CC4E7"/>
<path d="M213.002 315.016C213.002 329.072 207.418 342.553 197.479 352.492C187.539 362.432 174.058 368.016 160.002 368.016V366.033C173.533 366.033 186.509 360.658 196.077 351.09C205.644 341.523 211.019 328.546 211.019 315.016H213.002Z" fill="#8CC4E7"/>
<path d="M159.422 115.875C168.098 115.774 176.707 117.397 184.751 120.651C192.794 123.904 200.11 128.724 206.275 134.829C212.44 140.934 217.331 148.203 220.663 156.213C223.995 164.224 225.703 172.817 225.687 181.493L223.445 181.489C223.461 173.11 221.812 164.811 218.594 157.074C215.375 149.337 210.652 142.317 204.698 136.421C198.744 130.525 191.678 125.871 183.91 122.728C176.142 119.586 167.827 118.018 159.449 118.116L159.422 115.875Z" fill="#8CC4E7"/>
<path d="M226.002 315.066C226.062 323.742 224.397 332.343 221.104 340.37C217.812 348.398 212.957 355.691 206.822 361.826C200.688 367.962 193.395 372.817 185.368 376.111C177.342 379.404 168.74 381.07 160.064 381.012L160.079 378.771C168.459 378.827 176.766 377.218 184.518 374.037C192.27 370.856 199.313 366.167 205.237 360.241C211.162 354.316 215.851 347.272 219.031 339.52C222.21 331.767 223.818 323.46 223.761 315.081L226.002 315.066Z" fill="#8CC4E7"/>
<path d="M159.316 103.875C169.577 103.759 179.76 105.683 189.272 109.534C198.784 113.386 207.436 119.088 214.727 126.309C222.018 133.531 227.802 142.129 231.743 151.604C235.684 161.08 237.705 171.243 237.687 181.505L235.517 181.501C235.535 171.526 233.571 161.647 229.74 152.438C225.909 143.228 220.287 134.87 213.2 127.851C206.114 120.831 197.703 115.289 188.458 111.545C179.212 107.802 169.315 105.932 159.34 106.044L159.316 103.875Z" fill="#8CC4E7"/>
<path d="M238.003 315.017C238.069 325.279 236.096 335.452 232.199 344.945C228.302 354.439 222.558 363.063 215.301 370.319C208.044 377.575 199.418 383.317 189.924 387.213C180.43 391.108 170.257 393.08 159.995 393.012L160.009 390.843C169.984 390.908 179.872 388.992 189.101 385.206C198.329 381.419 206.713 375.838 213.767 368.785C220.821 361.732 226.404 353.349 230.192 344.121C233.98 334.894 235.898 325.006 235.834 315.031L238.003 315.017Z" fill="#8CC4E7"/>
<path d="M159.338 90.8748C183.319 90.9147 206.304 100.472 223.245 117.446C240.185 134.421 249.695 157.425 249.687 181.407L247.154 181.406C247.162 158.096 237.918 135.735 221.451 119.236C204.985 102.736 182.644 93.4469 159.333 93.4081L159.338 90.8748Z" fill="#8CC4E7"/>
<path d="M250.998 315.102C250.842 339.083 241.175 362.021 224.118 378.88C207.062 395.738 184.012 405.137 160.031 405.012L160.044 402.479C183.354 402.6 205.759 393.464 222.337 377.078C238.916 360.692 248.313 338.395 248.465 315.085L250.998 315.102Z" fill="#8CC4E7"/>
<path d="M159.343 75.875C173.032 75.8978 186.577 78.6623 199.18 84.0053C211.783 89.3483 223.188 97.1617 232.722 106.984C242.256 116.807 249.727 128.439 254.692 141.196C259.657 153.953 262.017 167.574 261.632 181.258L258.764 181.177C259.138 167.877 256.844 154.636 252.018 142.237C247.192 129.837 239.931 118.53 230.663 108.983C221.396 99.435 210.31 91.8404 198.06 86.6469C185.81 81.4535 172.644 78.7664 159.338 78.7442L159.343 75.875Z" fill="#8CC4E7"/>
<path d="M265.998 315.166C265.909 328.854 263.079 342.386 257.675 354.963C252.271 367.54 244.403 378.908 234.535 388.394C224.666 397.881 212.997 405.295 200.217 410.198C187.437 415.102 173.803 417.395 160.122 416.944L160.217 414.077C173.515 414.515 186.767 412.286 199.189 407.519C211.612 402.753 222.954 395.547 232.546 386.326C242.138 377.105 249.786 366.056 255.039 353.831C260.292 341.606 263.042 328.453 263.129 315.147L265.998 315.166Z" fill="#8CC4E7"/>
<path d="M159.105 60.8738C174.886 60.7975 190.525 63.861 205.11 69.8857C219.696 75.9105 232.938 84.7763 244.065 95.9671C255.192 107.158 263.983 120.45 269.924 135.07C275.865 149.69 278.84 165.346 278.673 181.126L275.342 181.091C275.504 165.753 272.613 150.535 266.838 136.324C261.063 122.114 252.519 109.193 241.703 98.3158C230.888 87.4383 218.016 78.8206 203.839 72.9645C189.661 67.1084 174.46 64.1307 159.121 64.2048L159.105 60.8738Z" fill="#8CC4E7"/>
<path d="M281.002 315.007C281.002 330.788 277.863 346.412 271.768 360.968C265.673 375.525 256.743 388.724 245.499 399.797C234.254 410.87 220.92 419.595 206.271 425.466C191.622 431.337 175.952 434.235 160.173 433.993L160.224 430.662C175.562 430.898 190.793 428.081 205.032 422.374C219.27 416.668 232.232 408.186 243.161 397.423C254.091 386.66 262.771 373.831 268.695 359.682C274.62 345.533 277.671 330.346 277.671 315.007H281.002Z" fill="#8CC4E7"/>
<path d="M159.405 38.8747C177.926 38.9056 196.255 42.6241 213.323 49.8133C230.392 57.0026 245.858 67.5187 258.819 80.7482C271.78 93.9777 281.977 109.656 288.816 126.868C295.654 144.08 298.996 162.481 298.648 180.999L294.744 180.925C295.082 162.926 291.834 145.04 285.187 128.31C278.54 111.579 268.628 96.3402 256.03 83.481C243.431 70.6218 228.398 60.4001 211.807 53.4121C195.217 46.424 177.401 42.8096 159.399 42.7796L159.405 38.8747Z" fill="#8CC4E7"/>
<path d="M302.997 315.406C302.877 333.927 299.07 352.238 291.798 369.271C284.526 386.304 273.936 401.719 260.644 414.617C247.352 427.514 231.625 437.635 214.38 444.39C197.135 451.145 178.718 454.399 160.202 453.961L160.294 450.057C178.292 450.483 196.193 447.32 212.956 440.754C229.718 434.188 245.005 424.35 257.924 411.814C270.844 399.278 281.139 384.294 288.207 367.738C295.275 351.181 298.975 333.383 299.092 315.381L302.997 315.406Z" fill="#8CC4E7"/>
<mask id="path-18-inside-1_1247_5" fill="white">
<path d="M317.683 180.06C317.806 196.746 314.642 213.293 308.37 228.756C302.099 244.219 292.843 258.295 281.132 270.181C269.42 282.067 255.482 291.53 240.114 298.029C224.745 304.528 208.247 307.937 191.561 308.06C174.875 308.184 158.329 305.019 142.866 298.748C127.403 292.477 113.327 283.221 101.441 271.509C89.5549 259.798 80.0921 245.86 73.5927 230.492C67.0934 215.123 63.6847 198.625 63.5614 181.939L190.622 181L317.683 180.06Z"/>
</mask>
<path d="M317.683 180.06C317.806 196.746 314.642 213.293 308.37 228.756C302.099 244.219 292.843 258.295 281.132 270.181C269.42 282.067 255.482 291.53 240.114 298.029C224.745 304.528 208.247 307.937 191.561 308.06C174.875 308.184 158.329 305.019 142.866 298.748C127.403 292.477 113.327 283.221 101.441 271.509C89.5549 259.798 80.0921 245.86 73.5927 230.492C67.0934 215.123 63.6847 198.625 63.5614 181.939L190.622 181L317.683 180.06Z" stroke="#3D2690" stroke-width="4" mask="url(#path-18-inside-1_1247_5)"/>
</svg>
