<svg width="544" height="1085" viewBox="0 0 544 1085" fill="none" xmlns="http://www.w3.org/2000/svg">
<path d="M180.416 164.354C180.602 142.888 185.469 121.665 194.738 101.897C204.006 82.1286 217.495 64.2019 234.435 49.1404C251.374 34.0789 271.432 22.1776 293.464 14.116C315.496 6.05433 339.069 1.99027 362.839 2.15582L361.418 165.615L180.416 164.354Z" fill="#FA3465"/>
<path d="M180.435 161.221C180.619 140.049 185.483 119.117 194.748 99.6202C204.013 80.1233 217.499 62.4433 234.435 47.5896C251.371 32.7359 271.425 20.9994 293.454 13.0502C315.482 5.10103 339.052 1.09484 362.819 1.26037L361.418 162.481L180.435 161.221Z" fill="#FA3465"/>
<rect x="180" y="324.963" width="181" height="162.034" fill="#FFC300"/>
<rect x="180" y="486.997" width="181" height="162.034" fill="#00C381"/>
<path d="M180 325.858C203.638 325.858 227.044 330.026 248.883 338.124C270.722 346.222 290.565 358.091 307.279 373.055C323.994 388.018 337.252 405.781 346.298 425.332C355.344 444.882 360 465.836 360 486.997L180 486.997L180 325.858Z" fill="#0088FE"/>
<path d="M261 741.686C261 719.961 270.64 699.126 287.8 683.765C304.959 668.403 328.233 659.773 352.5 659.773C376.767 659.773 400.041 668.403 417.2 683.765C434.36 699.126 444 719.961 444 741.686L352.5 741.686L261 741.686Z" fill="#0088FE"/>
<path d="M308 649.03C308 636.447 313.584 624.379 323.523 615.481C333.463 606.583 346.944 601.584 361 601.584L361 603.359C347.469 603.359 334.493 608.171 324.925 616.736C315.358 625.301 309.982 636.917 309.982 649.03L308 649.03Z" fill="#268FAF"/>
<path d="M295.002 648.984C294.942 641.217 296.607 633.517 299.9 626.331C303.192 619.145 308.047 612.616 314.182 607.124C320.316 601.631 327.609 597.284 335.635 594.336C343.662 591.387 352.263 589.896 360.939 589.948L360.924 591.954C352.545 591.904 344.238 593.345 336.486 596.192C328.734 599.04 321.691 603.238 315.766 608.542C309.842 613.847 305.153 620.152 301.973 627.093C298.793 634.033 297.185 641.469 297.243 648.971L295.002 648.984Z" fill="#268FAF"/>
<path d="M283.002 649.028C282.936 639.841 284.909 630.734 288.806 622.236C292.703 613.737 298.447 606.016 305.704 599.521C312.961 593.025 321.587 587.884 331.081 584.397C340.575 580.91 350.748 579.145 361.01 579.206L360.996 581.148C351.021 581.089 341.133 582.804 331.904 586.194C322.676 589.584 314.292 594.58 307.238 600.894C300.184 607.208 294.601 614.712 290.813 622.973C287.025 631.234 285.107 640.086 285.171 649.015L283.002 649.028Z" fill="#268FAF"/>
<path d="M270.002 648.951C270.158 627.483 279.825 606.948 296.882 591.857C313.938 576.765 336.988 568.351 360.969 568.462L360.956 570.73C337.646 570.622 315.241 578.8 298.663 593.47C282.084 608.139 272.687 628.099 272.535 648.966L270.002 648.951Z" fill="#268FAF"/>
<path d="M255.002 648.882C255.091 636.628 257.921 624.514 263.325 613.255C268.729 601.996 276.597 591.82 286.465 583.327C296.334 574.835 308.003 568.198 320.783 563.808C333.563 559.418 347.197 557.365 360.878 557.769L360.783 560.336C347.485 559.943 334.233 561.939 321.811 566.206C309.388 570.473 298.046 576.924 288.454 585.179C278.862 593.434 271.214 603.325 265.961 614.269C260.708 625.213 257.958 636.988 257.871 648.899L255.002 648.882Z" fill="#268FAF"/>
<path d="M240 649.031C240 634.903 243.139 620.916 249.234 607.885C255.329 594.854 264.259 583.038 275.503 573.125C286.748 563.213 300.082 555.401 314.731 550.146C329.38 544.89 345.05 542.295 360.829 542.513L360.778 545.494C345.44 545.283 330.209 547.805 315.97 552.914C301.732 558.022 288.77 565.615 277.841 575.25C266.911 584.885 258.231 596.37 252.307 609.037C246.382 621.703 243.331 635.298 243.331 649.031L240 649.031Z" fill="#268FAF"/>
<path d="M218.003 648.667C218.123 632.087 221.93 615.695 229.202 600.447C236.474 585.198 247.064 571.398 260.356 559.852C273.648 548.307 289.375 539.246 306.62 533.199C323.865 527.151 342.282 524.239 360.798 524.631L360.706 528.126C342.708 527.745 324.807 530.576 308.044 536.454C291.282 542.332 275.995 551.139 263.076 562.361C250.156 573.584 239.861 586.997 232.793 601.819C225.725 616.641 222.025 632.574 221.908 648.69L218.003 648.667Z" fill="#268FAF"/>
<mask id="mask0_1206_4" style="mask-type:alpha" maskUnits="userSpaceOnUse" x="50" y="711" width="190" height="171">
<ellipse cx="145" cy="796.741" rx="95" ry="85.0454" fill="#7636FE"/>
</mask>
<g mask="url(#mask0_1206_4)">
<rect x="50" y="711.695" width="191.18" height="170.091" fill="#012A51"/>
<rect x="50" y="711.695" width="191.18" height="9.50818" fill="#4EB296"/>
<rect x="50" y="730.712" width="191.18" height="9.50818" fill="#4EB296"/>
<rect x="50" y="749.728" width="191.18" height="9.50818" fill="#4EB296"/>
<rect x="50" y="768.745" width="191.18" height="9.50818" fill="#4EB296"/>
<rect x="50" y="787.762" width="191.18" height="9.50818" fill="#4EB296"/>
<rect x="50" y="806.777" width="191.18" height="9.50818" fill="#4EB296"/>
<rect x="50" y="825.794" width="191.18" height="9.50818" fill="#4EB296"/>
<rect x="50" y="844.81" width="191.18" height="9.50818" fill="#4EB296"/>
<rect x="50" y="863.827" width="191.18" height="9.50818" fill="#4EB296"/>
</g>
<mask id="mask1_1206_4" style="mask-type:alpha" maskUnits="userSpaceOnUse" x="274" y="782" width="167" height="150">
<ellipse rx="79.1777" ry="78.359" transform="matrix(0.775375 0.631501 -0.712789 0.701379 357.246 856.941)" fill="#7636FE"/>
</mask>
<g mask="url(#mask1_1206_4)">
<rect width="159.339" height="156.718" transform="matrix(0.775375 0.631501 -0.712789 0.701379 351.707 751.98)" fill="#E8F8F7"/>
<rect width="159.339" height="8.76063" transform="matrix(0.775375 0.631501 -0.712789 0.701379 351.707 751.98)" fill="#FCC302"/>
<rect width="159.339" height="8.76063" transform="matrix(0.775375 0.631501 -0.712789 0.701379 339.218 764.269)" fill="#FCC302"/>
<rect width="159.339" height="8.76063" transform="matrix(0.775375 0.631501 -0.712789 0.701379 326.729 776.559)" fill="#FCC302"/>
<rect width="159.339" height="8.76063" transform="matrix(0.775375 0.631501 -0.712789 0.701379 314.24 788.848)" fill="#FCC302"/>
<rect width="159.339" height="8.76063" transform="matrix(0.775375 0.631501 -0.712789 0.701379 301.751 801.137)" fill="#FCC302"/>
<rect width="159.339" height="8.76063" transform="matrix(0.775375 0.631501 -0.712789 0.701379 289.262 813.426)" fill="#FCC302"/>
<rect width="159.339" height="8.76063" transform="matrix(0.775375 0.631501 -0.712789 0.701379 276.773 825.715)" fill="#FCC302"/>
<rect width="159.339" height="8.76063" transform="matrix(0.775375 0.631501 -0.712789 0.701379 264.284 838.004)" fill="#FCC302"/>
<rect width="159.339" height="8.76063" transform="matrix(0.775375 0.631501 -0.712789 0.701379 251.795 850.292)" fill="#FCC302"/>
</g>
<mask id="mask2_1206_4" style="mask-type:alpha" maskUnits="userSpaceOnUse" x="297" y="164" width="129" height="115">
<ellipse rx="64.0691" ry="57.3561" transform="matrix(0.999982 0.00600048 -0.00748733 0.999972 361.497 221.563)" fill="#7636FE"/>
</mask>
<g mask="url(#mask2_1206_4)">
<rect width="128.934" height="114.712" transform="matrix(0.999982 0.00600048 -0.00748733 0.999972 297.859 163.824)" fill="#E8F8F7"/>
<rect width="128.934" height="6.41249" transform="matrix(0.999982 0.00600048 -0.00748733 0.999972 297.859 163.824)" fill="#FCC302"/>
<rect width="128.934" height="6.41249" transform="matrix(0.999982 0.00600048 -0.00748733 0.999972 297.763 176.649)" fill="#FCC302"/>
<rect width="128.934" height="6.41249" transform="matrix(0.999982 0.00600048 -0.00748733 0.999972 297.667 189.474)" fill="#FCC302"/>
<rect width="128.934" height="6.41249" transform="matrix(0.999982 0.00600048 -0.00748733 0.999972 297.571 202.298)" fill="#FCC302"/>
<rect width="128.934" height="6.41249" transform="matrix(0.999982 0.00600048 -0.00748733 0.999972 297.475 215.123)" fill="#FCC302"/>
<rect width="128.934" height="6.41249" transform="matrix(0.999982 0.00600048 -0.00748733 0.999972 297.379 227.947)" fill="#FCC302"/>
<rect width="128.934" height="6.41249" transform="matrix(0.999982 0.00600048 -0.00748733 0.999972 297.283 240.772)" fill="#FCC302"/>
<rect width="128.934" height="6.41249" transform="matrix(0.999982 0.00600048 -0.00748733 0.999972 297.187 253.596)" fill="#FCC302"/>
<rect width="128.934" height="6.41249" transform="matrix(0.999982 0.00600048 -0.00748733 0.999972 297.091 266.421)" fill="#FCC302"/>
</g>
<path d="M346 1016.52C346 1053.69 312.304 1084 270.5 1084C228.696 1084 195 1053.69 195 1016.52C195 979.347 228.696 949.032 270.5 949.032C312.304 949.032 346 979.347 346 1016.52Z" stroke="#81C6AA" stroke-width="2"/>
</svg>
