<svg width="606" height="1279" viewBox="0 0 606 1279" fill="none" xmlns="http://www.w3.org/2000/svg">
<mask id="mask0_1026_3" style="mask-type:alpha" maskUnits="userSpaceOnUse" x="51" y="0" width="161" height="159">
<ellipse cx="131.5" cy="79.3254" rx="80.5" ry="79.3254" fill="#7636FE"/>
</mask>
<g mask="url(#mask0_1026_3)">
<rect x="51" width="162" height="158.651" fill="#FFC301"/>
<rect x="51" width="162" height="8.86868" fill="#7636FE"/>
<rect x="51" y="17.7374" width="162" height="8.86868" fill="#7636FE"/>
<rect x="51" y="35.4747" width="162" height="8.86868" fill="#7636FE"/>
<rect x="51" y="53.2121" width="162" height="8.86868" fill="#7636FE"/>
<rect x="51" y="70.9495" width="162" height="8.86868" fill="#7636FE"/>
<rect x="51" y="88.6868" width="162" height="8.86868" fill="#7636FE"/>
<rect x="51" y="106.424" width="162" height="8.86868" fill="#7636FE"/>
<rect x="51" y="124.162" width="162" height="8.86868" fill="#7636FE"/>
<rect x="51" y="141.899" width="162" height="8.86868" fill="#7636FE"/>
</g>
<mask id="path-12-inside-1_1026_3" fill="white">
<path d="M219 192.927C219 170.035 223.604 147.367 232.549 126.218C241.495 105.068 254.606 85.8514 271.135 69.6643C287.664 53.4772 307.286 40.6369 328.882 31.8765C350.478 23.1161 373.625 18.6072 397 18.6072C420.375 18.6072 443.522 23.1161 465.118 31.8766C486.714 40.637 506.336 53.4773 522.865 69.6645C539.394 85.8516 552.505 105.069 561.451 126.218C570.396 147.368 575 170.035 575 192.927L397 192.927L219 192.927Z"/>
</mask>
<path d="M219 192.927C219 170.035 223.604 147.367 232.549 126.218C241.495 105.068 254.606 85.8514 271.135 69.6643C287.664 53.4772 307.286 40.6369 328.882 31.8765C350.478 23.1161 373.625 18.6072 397 18.6072C420.375 18.6072 443.522 23.1161 465.118 31.8766C486.714 40.637 506.336 53.4773 522.865 69.6645C539.394 85.8516 552.505 105.069 561.451 126.218C570.396 147.368 575 170.035 575 192.927L397 192.927L219 192.927Z" stroke="#8569CF" stroke-width="4" mask="url(#path-12-inside-1_1026_3)"/>
<mask id="mask1_1026_3" style="mask-type:alpha" maskUnits="userSpaceOnUse" x="51" y="0" width="161" height="158">
<ellipse cx="131.5" cy="78.8358" rx="80.5" ry="78.8358" fill="#7636FE"/>
</mask>
<g mask="url(#mask1_1026_3)">
<rect x="51" width="162" height="157.672" fill="#FFC301"/>
<rect x="51" width="162" height="8.81394" fill="#7636FE"/>
<rect x="51" y="17.6279" width="162" height="8.81394" fill="#7636FE"/>
<rect x="51" y="35.2557" width="162" height="8.81394" fill="#7636FE"/>
<rect x="51" y="52.8836" width="162" height="8.81394" fill="#7636FE"/>
<rect x="51" y="70.5115" width="162" height="8.81394" fill="#7636FE"/>
<rect x="51" y="88.1393" width="162" height="8.81394" fill="#7636FE"/>
<rect x="51" y="105.767" width="162" height="8.81394" fill="#7636FE"/>
<rect x="51" y="123.395" width="162" height="8.81394" fill="#7636FE"/>
<rect x="51" y="141.023" width="162" height="8.81394" fill="#7636FE"/>
</g>
<mask id="path-24-inside-2_1026_3" fill="white">
<path d="M219 191.948C219 169.056 223.604 146.388 232.549 125.238C241.495 104.089 254.606 84.8721 271.135 68.685C287.664 52.4979 307.286 39.6576 328.882 30.8972C350.478 22.1368 373.625 17.6279 397 17.6279C420.375 17.6279 443.522 22.1368 465.118 30.8972C486.714 39.6577 506.336 52.498 522.865 68.6851C539.394 84.8723 552.505 104.089 561.451 125.239C570.396 146.388 575 169.056 575 191.948L397 191.948L219 191.948Z"/>
</mask>
<path d="M219 191.948C219 169.056 223.604 146.388 232.549 125.238C241.495 104.089 254.606 84.8721 271.135 68.685C287.664 52.4979 307.286 39.6576 328.882 30.8972C350.478 22.1368 373.625 17.6279 397 17.6279C420.375 17.6279 443.522 22.1368 465.118 30.8972C486.714 39.6577 506.336 52.498 522.865 68.6851C539.394 84.8723 552.505 104.089 561.451 125.239C570.396 146.388 575 169.056 575 191.948L397 191.948L219 191.948Z" stroke="#8569CF" stroke-width="4" mask="url(#path-24-inside-2_1026_3)"/>
<mask id="mask2_1026_3" style="mask-type:alpha" maskUnits="userSpaceOnUse" x="51" y="0" width="161" height="158">
<ellipse cx="131.5" cy="78.8358" rx="80.5" ry="78.8358" fill="#7636FE"/>
</mask>
<g mask="url(#mask2_1026_3)">
<rect x="51" width="162" height="157.672" fill="#FFC301"/>
<rect x="51" width="162" height="8.81394" fill="#7636FE"/>
<rect x="51" y="17.6279" width="162" height="8.81394" fill="#7636FE"/>
<rect x="51" y="35.2557" width="162" height="8.81394" fill="#7636FE"/>
<rect x="51" y="52.8836" width="162" height="8.81394" fill="#7636FE"/>
<rect x="51" y="70.5115" width="162" height="8.81394" fill="#7636FE"/>
<rect x="51" y="88.1393" width="162" height="8.81394" fill="#7636FE"/>
<rect x="51" y="105.767" width="162" height="8.81394" fill="#7636FE"/>
<rect x="51" y="123.395" width="162" height="8.81394" fill="#7636FE"/>
<rect x="51" y="141.023" width="162" height="8.81394" fill="#7636FE"/>
</g>
<mask id="mask3_1026_3" style="mask-type:alpha" maskUnits="userSpaceOnUse" x="51" y="514" width="161" height="158">
<ellipse cx="131.5" cy="592.982" rx="80.5" ry="78.8358" fill="#7636FE"/>
</mask>
<g mask="url(#mask3_1026_3)">
<rect x="51" y="514.146" width="162" height="157.672" fill="#012A51"/>
<rect x="51" y="514.146" width="162" height="8.81394" fill="#4EB296"/>
<rect x="51" y="531.774" width="162" height="8.81394" fill="#4EB296"/>
<rect x="51" y="549.402" width="162" height="8.81394" fill="#4EB296"/>
<rect x="51" y="567.03" width="162" height="8.81394" fill="#4EB296"/>
<rect x="51" y="584.658" width="162" height="8.81394" fill="#4EB296"/>
<rect x="51" y="602.286" width="162" height="8.81394" fill="#4EB296"/>
<rect x="51" y="619.913" width="162" height="8.81394" fill="#4EB296"/>
<rect x="51" y="637.541" width="162" height="8.81394" fill="#4EB296"/>
<rect x="51" y="655.169" width="162" height="8.81394" fill="#4EB296"/>
</g>
<path d="M218 245.811C218 266.849 209.466 287.026 194.276 301.902C179.085 316.779 158.483 325.136 137 325.136C115.517 325.136 94.9148 316.779 79.7244 301.902C64.5339 287.026 56 266.849 56 245.811L137 245.811H218Z" fill="#002C51"/>
<path d="M310 1219.75C310 1235.46 303.626 1250.53 292.28 1261.65C280.934 1272.76 265.546 1279 249.5 1279C233.454 1279 218.066 1272.76 206.72 1261.65C195.374 1250.53 189 1235.46 189 1219.75L249.5 1219.75H310Z" fill="#0089FD"/>
<mask id="path-49-inside-3_1026_3" fill="white">
<path d="M219 192.927C219 170.035 223.604 147.367 232.549 126.218C241.495 105.068 254.606 85.8514 271.135 69.6643C287.664 53.4772 307.286 40.6369 328.882 31.8765C350.478 23.1161 373.625 18.6072 397 18.6072C420.375 18.6072 443.522 23.1161 465.118 31.8766C486.714 40.637 506.336 53.4773 522.865 69.6645C539.394 85.8516 552.505 105.069 561.451 126.218C570.396 147.368 575 170.035 575 192.927L397 192.927L219 192.927Z"/>
</mask>
<path d="M219 192.927C219 170.035 223.604 147.367 232.549 126.218C241.495 105.068 254.606 85.8514 271.135 69.6643C287.664 53.4772 307.286 40.6369 328.882 31.8765C350.478 23.1161 373.625 18.6072 397 18.6072C420.375 18.6072 443.522 23.1161 465.118 31.8766C486.714 40.637 506.336 53.4773 522.865 69.6645C539.394 85.8516 552.505 105.069 561.451 126.218C570.396 147.368 575 170.035 575 192.927L397 192.927L219 192.927Z" stroke="#8569CF" stroke-width="4" mask="url(#path-49-inside-3_1026_3)"/>
<rect x="400" y="367.247" width="181" height="177.258" fill="#FA3465"/>
<rect x="219" y="367.247" width="181" height="177.258" fill="#7538FE"/>
<rect x="400" y="720.784" width="181" height="177.258" fill="#00213D"/>
<rect x="400" y="898.042" width="181" height="177.258" fill="#26AC6E"/>
<rect x="219" y="543.526" width="181" height="177.258" fill="#00213D"/>
<rect x="219" y="189.989" width="181" height="177.258" fill="#0088FE"/>
<rect x="400" y="189.989" width="181" height="177.258" fill="white"/>
<path d="M399.5 720.784C375.796 720.784 352.325 716.225 330.426 707.366C308.526 698.507 288.628 685.522 271.867 669.153C255.106 652.784 241.811 633.351 232.74 611.964C223.669 590.577 219 567.655 219 544.505L399.5 544.505L399.5 720.784Z" fill="#0088FE"/>
<path d="M581.5 1250.6C557.796 1250.6 534.325 1246.04 512.426 1237.18C490.526 1228.32 470.628 1215.34 453.867 1198.97C437.106 1182.6 423.811 1163.17 414.74 1141.78C405.669 1120.39 401 1097.47 401 1074.32L581.5 1074.32L581.5 1250.6Z" fill="#FA3465"/>
<path d="M219 396.627C238.83 396.627 258.465 400.439 276.785 407.846C295.105 415.253 311.751 426.11 325.773 439.796C339.795 453.483 350.917 469.731 358.506 487.613C366.094 505.495 370 524.66 370 544.016L219 544.016L219 396.627Z" fill="#FFC300"/>
<path d="M400 720.784C423.901 720.784 447.567 725.382 469.648 734.314C491.73 743.247 511.793 756.34 528.693 772.845C545.594 789.351 559 808.945 568.146 830.511C577.292 852.076 582 875.19 582 898.532L400 898.532L400 720.784Z" fill="#FFC300"/>
<path d="M582 897.552C582 920.895 577.292 944.008 568.146 965.574C559 987.139 545.594 1006.73 528.693 1023.24C511.793 1039.74 491.73 1052.84 469.648 1061.77C447.567 1070.7 423.901 1075.3 400 1075.3L400 897.552H582Z" fill="#FFC300"/>
<path d="M400 368.227C423.638 368.227 447.044 372.786 468.883 381.645C490.722 390.504 510.565 403.489 527.279 419.858C543.994 436.227 557.252 455.659 566.298 477.046C575.344 498.434 580 521.356 580 544.505L400 544.505L400 368.227Z" fill="#00C381"/>
<path d="M125 891.677C125 855.963 139.487 821.713 165.273 796.459C191.059 771.206 226.033 757.019 262.5 757.019C298.967 757.019 333.941 771.206 359.727 796.459C385.513 821.713 400 855.963 400 891.676L262.5 891.677L125 891.677Z" fill="#7538FE"/>
<mask id="path-64-inside-4_1026_3" fill="white">
<path d="M0 892.656C3.18807e-06 856.942 14.4866 822.692 40.2728 797.439C66.0591 772.186 101.033 757.998 137.5 757.998C173.967 757.998 208.941 772.186 234.727 797.439C260.513 822.692 275 856.942 275 892.656L137.5 892.656L0 892.656Z"/>
</mask>
<path d="M0 892.656C3.18807e-06 856.942 14.4866 822.692 40.2728 797.439C66.0591 772.186 101.033 757.998 137.5 757.998C173.967 757.998 208.941 772.186 234.727 797.439C260.513 822.692 275 856.942 275 892.656L137.5 892.656L0 892.656Z" stroke="black" stroke-width="2" mask="url(#path-64-inside-4_1026_3)"/>
</svg>
